<svg xmlns="http://www.w3.org/2000/svg" viewBox="0 0 64 64">
  <!-- poe2lab: a lab flask with a life-red brew and a glowing gem in it -->
  <defs>
    <linearGradient id="brew" x1="0" y1="0" x2="0" y2="1">
      <stop offset="0" stop-color="#ff5a3c"/>
      <stop offset="0.5" stop-color="#c41f1a"/>
      <stop offset="1" stop-color="#5a0909"/>
    </linearGradient>
    <linearGradient id="gold" x1="0" y1="0" x2="1" y2="1">
      <stop offset="0" stop-color="#ffe29a"/>
      <stop offset="1" stop-color="#b8862f"/>
    </linearGradient>
    <radialGradient id="glow" cx="50%" cy="50%" r="50%">
      <stop offset="0" stop-color="#fff8d6"/>
      <stop offset="0.45" stop-color="#ffd166" stop-opacity="0.9"/>
      <stop offset="1" stop-color="#ffd166" stop-opacity="0"/>
    </radialGradient>
    <clipPath id="flask">
      <path d="M27 8H37V22.7A18 18 0 1 1 27 22.7Z"/>
    </clipPath>
  </defs>
  <rect width="64" height="64" rx="14" fill="#17120d"/>
  <g clip-path="url(#flask)">
    <rect x="0" y="0" width="64" height="64" fill="#2a2018"/>
    <path d="M8 35Q20 30 32 35T56 35V64H8Z" fill="url(#brew)"/>
    <circle cx="24" cy="50" r="1.8" fill="#ffb199" opacity="0.8"/>
    <circle cx="40" cy="52" r="1.3" fill="#ffb199" opacity="0.7"/>
    <circle cx="36" cy="39" r="1.1" fill="#ffd0c2" opacity="0.8"/>
  </g>
  <circle cx="32" cy="45" r="10" fill="url(#glow)"/>
  <path d="M32 37L34.2 42.8L40 45L34.2 47.2L32 53L29.8 47.2L24 45L29.8 42.8Z" fill="#fffbe6"/>
  <path d="M27 8H37V22.7A18 18 0 1 1 27 22.7Z" fill="none" stroke="url(#gold)" stroke-width="3.2" stroke-linejoin="round"/>
  <rect x="24.5" y="5" width="15" height="4.5" rx="2" fill="url(#gold)"/>
  <path d="M19.5 33A13.5 13.5 0 0 1 24 27" fill="none" stroke="#fff" stroke-opacity="0.35" stroke-width="2" stroke-linecap="round"/>
</svg>
